<?xml version="1.0" encoding="UTF-8" standalone="no"?>
<!-- Created with Inkscape (http://www.inkscape.org/) -->

<svg
   version="1.0"
   width="488"
   height="398"
   id="svg2"
   sodipodi:docname="IEEE style fuse.svg"
   inkscape:version="1.3 (0e150ed6c4, 2023-07-21)"
   xmlns:inkscape="http://www.inkscape.org/namespaces/inkscape"
   xmlns:sodipodi="http://sodipodi.sourceforge.net/DTD/sodipodi-0.dtd"
   xmlns="http://www.w3.org/2000/svg"
   xmlns:svg="http://www.w3.org/2000/svg">
  <sodipodi:namedview
     id="namedview1"
     pagecolor="#ffffff"
     bordercolor="#000000"
     borderopacity="0.25"
     inkscape:showpageshadow="2"
     inkscape:pageopacity="0.0"
     inkscape:pagecheckerboard="0"
     inkscape:deskcolor="#d1d1d1"
     inkscape:zoom="1.1442956"
     inkscape:cx="243.81811"
     inkscape:cy="245.12896"
     inkscape:window-width="1920"
     inkscape:window-height="1027"
     inkscape:window-x="-8"
     inkscape:window-y="-8"
     inkscape:window-maximized="1"
     inkscape:current-layer="svg2" />
  <defs
     id="defs4" />
  <g
     id="g3529"
     transform="translate(-116,-348.36217)">
    <path
       d="m 220,352.36218 c 220,-1e-5 280,-1e-5 280,-1e-5 v 120 H 220 m 0,-120 v 120"
       id="path2399"
       style="fill:none;fill-rule:evenodd;stroke:#000000;stroke-width:8;stroke-linecap:round;stroke-linejoin:miter;stroke-miterlimit:4;stroke-dasharray:none;stroke-opacity:1" />
    <path
       d="m 600,412.36217 c -100,0 -480,0 -480,0"
       id="path2403"
       style="fill:none;fill-rule:evenodd;stroke:#000000;stroke-width:8;stroke-linecap:butt;stroke-linejoin:miter;stroke-miterlimit:4;stroke-dasharray:none;stroke-opacity:1" />
  </g>
  <g
     id="g3526"
     transform="translate(-116,-348.36217)">
    <path
       d="m 220,672.36218 c -100,0 -100,0 -100,0 m 240,0 c 0,0 0,0 0,0 v 0 c 0,38.64 -31.36,70 -70,70 -38.64,0 -70,-31.36 -70,-70 m 140,0 c 0,0 0,0 0,0 0,-38.64 31.36,-70 70,-70 38.64,0 70,31.36 70,70 m 100,0 c -100,0 -100,0 -100,0"
       id="path2407"
       style="fill:none;fill-rule:evenodd;stroke:#000000;stroke-width:8;stroke-linecap:round;stroke-linejoin:miter;stroke-miterlimit:4;stroke-dasharray:none;stroke-opacity:1" />
  </g>
</svg>
